# Blender v2.78 (sub 0) OBJ File: ''
# www.blender.org
mtllib indrustial_oxygenerator.mtl
o Cube
v 0.464009 -0.494990 -0.500526
v 0.464009 -0.494990 1.456164
v -1.492681 -0.494990 1.456163
v -1.492681 -0.494990 -0.500527
v 0.464009 1.461700 -0.500526
v 0.464008 1.461700 1.456164
v -1.492682 1.461700 1.456163
v -1.492681 1.461700 -0.500526
vt 1.0000 0.0000
vt 1.0000 1.0000
vt 0.0000 1.0000
vt 0.0000 0.0000
vt 1.0000 0.0000
vt 1.0000 1.0000
vt 0.0000 1.0000
vt 0.0000 0.0000
vt 1.0000 1.0000
vt 0.0000 1.0000
vt 0.0000 0.0000
vt 1.0000 0.0000
vt 1.0000 1.0000
vt 0.0000 0.0000
vt 1.0000 0.0000
vt 1.0000 1.0000
vt 0.0000 1.0000
vt 0.0000 1.0000
vt 0.0000 0.0000
vt 1.0000 0.0000
vn 0.0000 -1.0000 -0.0000
vn 0.0000 1.0000 -0.0000
vn 1.0000 0.0000 0.0000
vn -0.0000 -0.0000 1.0000
vn -1.0000 -0.0000 -0.0000
vn 0.0000 0.0000 -1.0000
usemtl Material
s off
f 1/1/1 2/2/1 3/3/1 4/4/1
f 5/5/2 8/6/2 7/7/2 6/8/2
f 1/1/3 5/9/3 6/10/3 2/11/3
f 2/12/4 6/13/4 7/7/4 3/14/4
f 3/15/5 7/16/5 8/17/5 4/4/5
f 5/18/6 1/19/6 4/20/6 8/6/6
